# Blender v2.78 (sub 0) OBJ File: 'CubeScene.blend'
# www.blender.org
mtllib CubeScene.mtl
o Cube.001_Cube.004
v 0.238370 0.370626 1.020480
v 0.238370 2.370626 1.020480
v 0.238370 0.370626 0.840480
v 0.238370 2.370626 0.840480
v 0.678370 0.370626 1.020480
v 0.678370 2.370626 1.020480
v 0.678370 0.370626 0.840480
v 0.678370 2.370626 0.840480
vn -1.0000 0.0000 0.0000
vn 0.0000 0.0000 -1.0000
vn 1.0000 0.0000 0.0000
vn 0.0000 0.0000 1.0000
vn 0.0000 -1.0000 0.0000
vn 0.0000 1.0000 0.0000
usemtl Material.004
s off
f 1//1 2//1 4//1 3//1
f 3//2 4//2 8//2 7//2
f 7//3 8//3 6//3 5//3
f 5//4 6//4 2//4 1//4
f 3//5 7//5 5//5 1//5
f 8//6 4//6 2//6 6//6
o Cube_Cube.003
v -1.058136 0.189526 1.390745
v -1.058136 2.189526 1.390745
v -1.058136 0.189526 -0.609255
v -1.058136 2.189526 -0.609255
v 0.941864 0.189526 1.390745
v 0.941864 2.189526 1.390745
v 0.941864 0.189526 -0.609255
v 0.941864 2.189526 -0.609255
vn -1.0000 0.0000 0.0000
vn 0.0000 0.0000 -1.0000
vn 1.0000 0.0000 0.0000
vn 0.0000 0.0000 1.0000
vn 0.0000 -1.0000 0.0000
vn 0.0000 1.0000 0.0000
usemtl Material.003
s off
f 9//7 10//7 12//7 11//7
f 11//8 12//8 16//8 15//8
f 15//9 16//9 14//9 13//9
f 13//10 14//10 10//10 9//10
f 11//11 15//11 13//11 9//11
f 16//12 12//12 10//12 14//12
o Plane
v 2.643739 -0.026522 -1.930800
v -2.396260 -0.026521 -1.930799
v 2.643741 -0.026521 3.589200
v -2.396259 -0.026521 3.589201
vn 0.0000 1.0000 -0.0000
usemtl Material.002
s off
f 17//13 18//13 20//13 19//13
o Plane.001
v -2.396260 -0.044420 -1.932699
v 2.643739 -0.044420 -1.932701
v -2.396260 5.475580 -1.932699
v 2.643739 5.475580 -1.932700
vn 0.0000 -0.0000 1.0000
usemtl Material.001
s off
f 21//14 22//14 24//14 23//14
