# Blender v2.78 (sub 0) OBJ File: 'reflection.blend'
# www.blender.org
mtllib reflection.mtl
o Cube_Cube.002
v -0.880792 0.380583 1.154205
v -0.880792 2.380583 1.154205
v -0.880792 0.380583 -0.845795
v -0.880792 2.380583 -0.845795
v 1.119208 0.380583 1.154205
v 1.119208 2.380583 1.154205
v 1.119208 0.380583 -0.845795
v 1.119208 2.380583 -0.845795
vn -1.0000 0.0000 0.0000
vn 0.0000 0.0000 -1.0000
vn 1.0000 0.0000 0.0000
vn 0.0000 0.0000 1.0000
vn 0.0000 -1.0000 0.0000
vn 0.0000 1.0000 0.0000
usemtl Material.007
s off
f 1//1 2//1 4//1 3//1
f 3//2 4//2 8//2 7//2
f 7//3 8//3 6//3 5//3
f 5//4 6//4 2//4 1//4
f 3//5 7//5 5//5 1//5
f 8//6 4//6 2//6 6//6
o Plane
v -5.211315 -2.342255 8.539719
v 9.108685 -2.342255 8.539719
v -5.211315 -2.342255 -5.220282
v 9.108685 -2.342255 -5.220282
vn 0.0000 1.0000 0.0000
usemtl Material.006
s off
f 9//7 10//7 12//7 11//7
