# Blender v2.78 (sub 0) OBJ File: 'SoftShadow.blend'
# www.blender.org
mtllib SoftShadow.mtl
o Plane
v -4.784885 -0.045214 2.921568
v 2.255115 -0.045214 2.921568
v -4.784885 -0.045214 -3.018431
v 2.255115 -0.045214 -3.018431
vn 0.0000 1.0000 0.0000
usemtl Material.001
s off
f 1//1 2//1 4//1 3//1
o Cube
v 1.000000 0.100291 -0.955700
v 1.000000 0.100291 1.044300
v -1.000000 0.100291 1.044299
v -1.000000 0.100291 -0.955701
v 1.000000 2.100291 -0.955700
v 0.999999 2.100291 1.044300
v -1.000000 2.100291 1.044299
v -1.000000 2.100291 -0.955700
vn 0.0000 -1.0000 -0.0000
vn 0.0000 1.0000 0.0000
vn 1.0000 0.0000 0.0000
vn -0.0000 -0.0000 1.0000
vn -1.0000 -0.0000 -0.0000
vn 0.0000 0.0000 -1.0000
usemtl Material
s off
f 5//2 6//2 7//2 8//2
f 9//3 12//3 11//3 10//3
f 5//4 9//4 10//4 6//4
f 6//5 10//5 11//5 7//5
f 7//6 11//6 12//6 8//6
f 9//7 5//7 8//7 12//7
o Plane.001
v -4.584823 3.474786 2.921568
v -4.584823 -3.565214 2.921568
v -4.584823 3.474786 -3.018431
v -4.584823 -3.565214 -3.018431
vn 1.0000 0.0000 0.0000
usemtl Material.002
s off
f 13//8 14//8 16//8 15//8
